<svg width="184" height="144" viewBox="0 0 184 144" fill="none" xmlns="http://www.w3.org/2000/svg">
<path d="M27.8 0H72.4V26.6H33.4C29.6667 26.6 27.5333 26.8667 27 27.4C26.6 27.8 26.4 29.8667 26.4 33.6V51.8C26.4 55.5333 26.6 57.6 27 58C27.5333 58.4 29.6667 58.6 33.4 58.6H72.4V85.2H27.8C20.2 85.2 13.6667 82.4667 8.2 77C2.73333 71.5333 0 65 0 57.4V27.8C0 20.2 2.73333 13.6667 8.2 8.2C13.6667 2.73333 20.2 0 27.8 0Z" fill="#08A045"/>
<path d="M72.4 117.4V144H27.8C20.2 144 13.6667 141.267 8.2 135.8C2.73333 130.333 0 123.8 0 116.2V105.2H26.4V110.4C26.4 114.133 26.6 116.267 27 116.8C27.5333 117.2 29.6667 117.4 33.4 117.4H72.4Z" fill="#08A045"/>
<path d="M87 0H155.2C162.933 0 169.533 2.73333 175 8.2C180.467 13.6667 183.2 20.2 183.2 27.8V39H156.6V33.6C156.6 29.8667 156.333 27.8 155.8 27.4C155.267 26.8667 153.2 26.6 149.6 26.6H112V117.4H149.6C153.2 117.4 155.267 117.2 155.8 116.8C156.333 116.267 156.6 114.133 156.6 110.4V89H124V62.4H183.2V116.2C183.2 123.8 180.467 130.333 175 135.8C169.533 141.267 162.933 144 155.2 144H87V0Z" fill="#08A045"/>
</svg>
